<mxfile host="65bd71144e">
    <diagram id="GmBF36gxp8iPbRfFSBh9" name="Page-1">
        <mxGraphModel dx="1356" dy="1874" grid="1" gridSize="10" guides="1" tooltips="1" connect="1" arrows="1" fold="1" page="1" pageScale="1" pageWidth="1100" pageHeight="850" math="0" shadow="0">
            <root>
                <mxCell id="0"/>
                <mxCell id="1" parent="0"/>
                <mxCell id="6" value="" style="edgeStyle=none;sketch=1;hachureGap=4;jiggle=2;curveFitting=1;html=1;fontFamily=Times New Roman;fontSize=16;" parent="1" source="2" target="5" edge="1">
                    <mxGeometry relative="1" as="geometry"/>
                </mxCell>
                <mxCell id="8" value="" style="edgeStyle=none;sketch=1;hachureGap=4;jiggle=2;curveFitting=1;html=1;fontFamily=Times New Roman;fontSize=16;" parent="1" source="2" target="7" edge="1">
                    <mxGeometry relative="1" as="geometry"/>
                </mxCell>
                <mxCell id="2" value="&lt;p&gt;&lt;font face=&quot;Verdana&quot;&gt;MACHINE LEARNING&lt;/font&gt;&lt;/p&gt;" style="rounded=1;whiteSpace=wrap;html=1;sketch=1;hachureGap=4;jiggle=2;curveFitting=1;fontFamily=Architects Daughter;fontSource=https%3A%2F%2Ffonts.googleapis.com%2Fcss%3Ffamily%3DArchitects%2BDaughter;fontSize=20;fontStyle=0;verticalAlign=middle;align=center;glass=0;shadow=0;fillStyle=auto;" parent="1" vertex="1">
                    <mxGeometry x="420" y="-660" width="130" height="60" as="geometry"/>
                </mxCell>
                <mxCell id="16" value="" style="edgeStyle=none;sketch=1;hachureGap=4;jiggle=2;curveFitting=1;html=1;fontFamily=Architects Daughter;fontSource=https%3A%2F%2Ffonts.googleapis.com%2Fcss%3Ffamily%3DArchitects%2BDaughter;fontSize=16;entryX=0.5;entryY=0;entryDx=0;entryDy=0;" parent="1" source="5" target="18" edge="1">
                    <mxGeometry relative="1" as="geometry">
                        <mxPoint x="330" y="-360" as="targetPoint"/>
                        <Array as="points"/>
                    </mxGeometry>
                </mxCell>
                <mxCell id="5" value="&lt;font face=&quot;Verdana&quot;&gt;Supervised&lt;br&gt;Learning&lt;/font&gt;" style="whiteSpace=wrap;html=1;fontSize=20;fontFamily=Architects Daughter;rounded=1;sketch=1;hachureGap=4;jiggle=2;curveFitting=1;fontSource=https%3A%2F%2Ffonts.googleapis.com%2Fcss%3Ffamily%3DArchitects%2BDaughter;fontStyle=0;glass=0;shadow=0;fillStyle=auto;" parent="1" vertex="1">
                    <mxGeometry x="269" y="-570" width="120" height="60" as="geometry"/>
                </mxCell>
                <mxCell id="7" value="&lt;font face=&quot;Verdana&quot;&gt;Unsupervised&lt;br&gt;Learning&lt;/font&gt;" style="whiteSpace=wrap;html=1;fontSize=20;fontFamily=Architects Daughter;rounded=1;sketch=1;hachureGap=4;jiggle=2;curveFitting=1;fontSource=https%3A%2F%2Ffonts.googleapis.com%2Fcss%3Ffamily%3DArchitects%2BDaughter;fontStyle=0;glass=0;shadow=0;fillStyle=auto;" parent="1" vertex="1">
                    <mxGeometry x="570" y="-570" width="140" height="60" as="geometry"/>
                </mxCell>
                <mxCell id="10" value="Machine Learning gives computers the ability to learn without explicit programming." style="text;html=1;strokeColor=none;fillColor=none;align=center;verticalAlign=middle;whiteSpace=wrap;rounded=0;shadow=0;glass=0;sketch=1;hachureGap=4;jiggle=2;fillStyle=auto;curveFitting=1;fontFamily=Verdana;fontSize=20;" parent="1" vertex="1">
                    <mxGeometry x="271" y="-790" width="480" height="90" as="geometry"/>
                </mxCell>
                <mxCell id="12" value="Field of study that gives computers the ability to learn without being explicit programmed." style="text;html=1;strokeColor=none;fillColor=none;align=center;verticalAlign=middle;whiteSpace=wrap;rounded=0;shadow=0;glass=0;sketch=1;hachureGap=4;jiggle=2;fillStyle=auto;curveFitting=1;fontFamily=Verdana;fontSize=20;" parent="1" vertex="1">
                    <mxGeometry x="270" y="-720" width="481" height="60" as="geometry"/>
                </mxCell>
                <mxCell id="15" value="" style="shape=waypoint;sketch=1;size=6;pointerEvents=1;points=[];fillColor=default;resizable=0;rotatable=0;perimeter=centerPerimeter;snapToPoint=1;fontSize=20;fontFamily=Architects Daughter;rounded=1;hachureGap=4;jiggle=2;curveFitting=1;fontSource=https%3A%2F%2Ffonts.googleapis.com%2Fcss%3Ffamily%3DArchitects%2BDaughter;fontStyle=0;glass=0;shadow=0;fillStyle=auto;" parent="1" vertex="1">
                    <mxGeometry x="190" y="-330" width="20" height="20" as="geometry"/>
                </mxCell>
                <mxCell id="18" value="&lt;font face=&quot;Verdana&quot;&gt;X&amp;nbsp; -------&amp;gt;&amp;nbsp; Y&lt;br&gt;(input)&amp;nbsp; &amp;nbsp; (output)&lt;/font&gt;" style="text;html=1;strokeColor=none;fillColor=none;align=center;verticalAlign=middle;whiteSpace=wrap;rounded=0;sketch=1;hachureGap=4;jiggle=2;curveFitting=1;fontFamily=Architects Daughter;fontSource=https%3A%2F%2Ffonts.googleapis.com%2Fcss%3Ffamily%3DArchitects%2BDaughter;fontSize=20;" parent="1" vertex="1">
                    <mxGeometry x="190" y="-455" width="265" height="60" as="geometry"/>
                </mxCell>
                <mxCell id="19" value="Supervised Learning Algorithm Types&amp;nbsp;" style="rounded=1;whiteSpace=wrap;html=1;sketch=1;hachureGap=4;jiggle=2;curveFitting=1;fontFamily=Verdana;fontSize=20;labelBackgroundColor=none;" parent="1" vertex="1">
                    <mxGeometry x="140" y="-310" width="210" height="60" as="geometry"/>
                </mxCell>
                <mxCell id="31" value="Learn from data labeled with the right answers." style="text;html=1;strokeColor=none;fillColor=none;align=center;verticalAlign=middle;whiteSpace=wrap;rounded=0;labelBackgroundColor=none;sketch=1;hachureGap=4;jiggle=2;curveFitting=1;fontFamily=Verdana;fontSize=20;" parent="1" vertex="1">
                    <mxGeometry x="169" y="-420" width="320" height="110" as="geometry"/>
                </mxCell>
                <mxCell id="32" value="Find something intresting(patter,structure) in data." style="text;html=1;strokeColor=none;fillColor=none;align=center;verticalAlign=middle;whiteSpace=wrap;rounded=0;labelBackgroundColor=none;sketch=1;hachureGap=4;jiggle=2;curveFitting=1;fontFamily=Verdana;fontSize=20;" parent="1" vertex="1">
                    <mxGeometry x="455" y="-490" width="360" height="50" as="geometry"/>
                </mxCell>
                <mxCell id="41" value="" style="edgeStyle=none;sketch=1;hachureGap=4;jiggle=2;curveFitting=1;html=1;fontFamily=Verdana;fontSize=16;entryX=0.378;entryY=-0.029;entryDx=0;entryDy=0;entryPerimeter=0;" parent="1" source="36" edge="1" target="58">
                    <mxGeometry relative="1" as="geometry">
                        <mxPoint x="800" y="-300" as="targetPoint"/>
                    </mxGeometry>
                </mxCell>
                <mxCell id="36" value="&lt;font face=&quot;Verdana&quot;&gt;Unsupervised&lt;br&gt;Learning Algorith&lt;/font&gt;" style="whiteSpace=wrap;html=1;fontSize=20;fontFamily=Architects Daughter;rounded=1;sketch=1;hachureGap=4;jiggle=2;curveFitting=1;fontSource=https%3A%2F%2Ffonts.googleapis.com%2Fcss%3Ffamily%3DArchitects%2BDaughter;fontStyle=0;glass=0;shadow=0;fillStyle=auto;" parent="1" vertex="1">
                    <mxGeometry x="690" y="-380" width="210" height="70" as="geometry"/>
                </mxCell>
                <mxCell id="42" value="" style="shape=waypoint;sketch=0;fillStyle=solid;size=6;pointerEvents=1;points=[];fillColor=none;resizable=0;rotatable=0;perimeter=centerPerimeter;snapToPoint=1;labelBackgroundColor=none;hachureGap=4;jiggle=2;curveFitting=1;fontFamily=Verdana;fontSize=20;" parent="1" vertex="1">
                    <mxGeometry x="260" y="-770" width="20" height="20" as="geometry"/>
                </mxCell>
                <mxCell id="44" value="" style="shape=waypoint;sketch=0;fillStyle=solid;size=6;pointerEvents=1;points=[];fillColor=none;resizable=0;rotatable=0;perimeter=centerPerimeter;snapToPoint=1;labelBackgroundColor=none;hachureGap=4;jiggle=2;curveFitting=1;fontFamily=Verdana;fontSize=20;" parent="1" vertex="1">
                    <mxGeometry x="260" y="-710" width="20" height="20" as="geometry"/>
                </mxCell>
                <mxCell id="48" value="" style="endArrow=none;dashed=1;html=1;dashPattern=1 3;strokeWidth=2;sketch=1;hachureGap=4;jiggle=2;curveFitting=1;fontFamily=Architects Daughter;fontSource=https%3A%2F%2Ffonts.googleapis.com%2Fcss%3Ffamily%3DArchitects%2BDaughter;fontSize=16;" parent="1" edge="1">
                    <mxGeometry width="50" height="50" relative="1" as="geometry">
                        <mxPoint x="130" y="-200" as="sourcePoint"/>
                        <mxPoint x="180" y="-250" as="targetPoint"/>
                    </mxGeometry>
                </mxCell>
                <mxCell id="55" value="Regression Algorithm&lt;br&gt;------------------------&lt;br&gt;1.Linear Regression&lt;br&gt;&lt;div style=&quot;&quot;&gt;&lt;span style=&quot;background-color: initial;&quot;&gt;2.Polnomial Reg.&amp;nbsp; &amp;nbsp;&amp;nbsp;&lt;/span&gt;&lt;/div&gt;&lt;div style=&quot;&quot;&gt;&lt;span style=&quot;background-color: initial;&quot;&gt;3.Ridge Reg.&amp;nbsp; &amp;nbsp; &amp;nbsp; &amp;nbsp; &amp;nbsp;&amp;nbsp;&lt;/span&gt;&lt;/div&gt;4.Logistic Reg." style="text;html=1;whiteSpace=wrap;strokeColor=none;fillColor=none;overflow=fill;sketch=1;hachureGap=4;jiggle=2;curveFitting=1;fontFamily=Verdana;fontSize=20;align=left;" parent="1" vertex="1">
                    <mxGeometry y="-200" width="220" height="170" as="geometry"/>
                </mxCell>
                <mxCell id="56" value="&lt;div style=&quot;&quot;&gt;&lt;span style=&quot;background-color: initial;&quot;&gt;Classificatio Algorithm&lt;/span&gt;&lt;/div&gt;&lt;div style=&quot;&quot;&gt;&lt;span style=&quot;background-color: initial;&quot;&gt;------------------------------------&lt;/span&gt;&lt;/div&gt;&lt;div style=&quot;&quot;&gt;&lt;span style=&quot;background-color: initial;&quot;&gt;1.Binary classification&lt;/span&gt;&lt;/div&gt;&lt;div style=&quot;&quot;&gt;&lt;span style=&quot;background-color: initial;&quot;&gt;2.Multiclass classi..&lt;/span&gt;&lt;/div&gt;&lt;div style=&quot;&quot;&gt;&lt;span style=&quot;background-color: initial;&quot;&gt;3.Decision Tree&lt;/span&gt;&lt;/div&gt;&lt;div style=&quot;&quot;&gt;&lt;span style=&quot;background-color: initial;&quot;&gt;4.SVM(Support vector machine)&lt;/span&gt;&lt;/div&gt;" style="text;html=1;whiteSpace=wrap;strokeColor=none;fillColor=none;overflow=fill;sketch=1;hachureGap=4;jiggle=2;curveFitting=1;fontFamily=Verdana;fontSize=20;align=left;" parent="1" vertex="1">
                    <mxGeometry x="240" y="-200" width="330" height="160" as="geometry"/>
                </mxCell>
                <mxCell id="58" value="&lt;div style=&quot;&quot;&gt;&lt;/div&gt;&lt;span style=&quot;text-align: center;&quot;&gt;Clustering Algorithm&lt;br&gt;------------------------------------&lt;br&gt;1.K-means&amp;nbsp;&lt;/span&gt;&lt;span style=&quot;text-align: center;&quot;&gt;Clustering&lt;br&gt;&lt;/span&gt;&lt;span style=&quot;text-align: center;&quot;&gt;2.Hierarchical&amp;nbsp;&lt;/span&gt;&lt;span style=&quot;text-align: center;&quot;&gt;Clustering&amp;nbsp;&lt;br&gt;&lt;/span&gt;&lt;span style=&quot;text-align: center;&quot;&gt;3.Density Based Spatical&amp;nbsp;&lt;/span&gt;&lt;span style=&quot;text-align: center;&quot;&gt;Clustering&lt;br&gt;&lt;/span&gt;&lt;span style=&quot;text-align: center;&quot;&gt;4.Mean-shift&amp;nbsp;&lt;/span&gt;&lt;span style=&quot;text-align: center;&quot;&gt;Clustering&amp;nbsp;&lt;br&gt;&lt;/span&gt;&lt;span style=&quot;text-align: center;&quot;&gt;5.Fuzzy C-Means&amp;nbsp;&lt;/span&gt;&lt;span style=&quot;text-align: center;&quot;&gt;Clustering&amp;nbsp;&lt;/span&gt;&lt;span style=&quot;text-align: center;&quot;&gt;&lt;br&gt;&lt;/span&gt;" style="text;html=1;whiteSpace=wrap;strokeColor=none;fillColor=none;overflow=fill;sketch=1;hachureGap=4;jiggle=2;curveFitting=1;fontFamily=Verdana;fontSize=20;align=left;fontSource=https%3A%2F%2Ffonts.googleapis.com%2Fcss%3Ffamily%3DArchitects%2BDaughter;" parent="1" vertex="1">
                    <mxGeometry x="650" y="-250" width="390" height="180" as="geometry"/>
                </mxCell>
                <mxCell id="60" value="" style="endArrow=none;dashed=1;html=1;dashPattern=1 3;strokeWidth=2;sketch=1;hachureGap=4;jiggle=2;curveFitting=1;fontFamily=Architects Daughter;fontSource=https%3A%2F%2Ffonts.googleapis.com%2Fcss%3Ffamily%3DArchitects%2BDaughter;fontSize=16;" edge="1" parent="1">
                    <mxGeometry width="50" height="50" relative="1" as="geometry">
                        <mxPoint x="280" y="-200" as="sourcePoint"/>
                        <mxPoint x="330" y="-250" as="targetPoint"/>
                    </mxGeometry>
                </mxCell>
            </root>
        </mxGraphModel>
    </diagram>
</mxfile>